<?xml version="1.0" encoding="utf-8"?>
<!-- Generator: Adobe Illustrator 21.1.0, SVG Export Plug-In . SVG Version: 6.00 Build 0)  -->
<svg version="1.1" id="Calque_1" xmlns="http://www.w3.org/2000/svg" xmlns:xlink="http://www.w3.org/1999/xlink" x="0px" y="0px"
	 viewBox="0 0 1920 1080" style="enable-background:new 0 0 1920 1080;" xml:space="preserve">
<style type="text/css">
	.st0{fill:#F9F9F9;}
	.st1{fill:#F0F0F0;}
	.st2{fill:#FF2E2E;}
	.st3{fill:#2CB3BD;}
	.st4{fill:#3CC84A;}
</style>
<g>
	<rect x="960" class="st0" width="960" height="540"/>
</g>
<g>
	<polygon class="st1" points="1920,1080 0,1080 960,540 1920,540 	"/>
</g>
<g>
	<path class="st2" d="M1689.2,539.8c0.7-0.7,0.7-1.7,0-2.4l-10.8-10.8c-0.7-0.7-1.7-0.7-2.4,0c-0.7,0.7-0.7,1.7,0,2.4l9.6,9.6
		l-9.6,9.6c-0.7,0.7-0.7,1.7,0,2.4c0.7,0.7,1.7,0.7,2.4,0L1689.2,539.8z M1190.3,539.9h497.9v-3.4h-497.9V539.9z"/>
</g>
<g>
	<path class="st3" d="M961.2,144.3c-0.7-0.7-1.7-0.7-2.4,0L948,155.1c-0.7,0.7-0.7,1.7,0,2.4c0.7,0.7,1.7,0.7,2.4,0l9.6-9.6l9.6,9.6
		c0.7,0.7,1.7,0.7,2.4,0c0.7-0.7,0.7-1.7,0-2.4L961.2,144.3z M962.2,396.2V146h-4.4v250.2H962.2z"/>
</g>
<g>
	<path class="st4" d="M337.8,888.5c-0.3,0.9,0.3,1.8,1.2,2.1l14.7,4.1c0.9,0.3,1.8-0.3,2.1-1.2c0.3-0.9-0.3-1.8-1.2-2.1l-13.1-3.7
		l3.7-13.1c0.3-0.9-0.3-1.8-1.2-2.1c-0.9-0.3-1.8,0.3-2.1,1.2L337.8,888.5z M768.1,646.3L338.8,886.8l1.7,3l429.2-240.5L768.1,646.3
		z"/>
</g>
</svg>
