<?xml version="1.0" encoding="utf-8"?>
<!-- Generator: Adobe Illustrator 21.1.0, SVG Export Plug-In . SVG Version: 6.00 Build 0)  -->
<svg version="1.1" id="Calque_1" xmlns="http://www.w3.org/2000/svg" xmlns:xlink="http://www.w3.org/1999/xlink" x="0px" y="0px"
	 viewBox="0 0 100 100" style="enable-background:new 0 0 100 100;" xml:space="preserve">
<style type="text/css">
	.st0{fill:#FFFFFF;}
</style>
<path class="st0" d="M60.8,35H15.2c-4,0-7.2,3.2-7.2,7.2v45.7c0,3.9,3.2,7.2,7.2,7.2h45.7c3.9,0,7.2-3.2,7.2-7.2V42.2
	C68,38.2,64.8,35,60.8,35z M62,87.8c0,0.6-0.5,1.1-1.1,1.1H15.2c-0.6,0-1.1-0.5-1.1-1.1V42.2c0-0.6,0.5-1.1,1.1-1.1h45.7
	c0.6,0,1.1,0.5,1.1,1.1V87.8z"/>
<path class="st0" d="M84.8,5H39.2c-4,0-7.2,3.2-7.2,7.2V29h6V12.2c0-0.6,0.5-1.1,1.1-1.1h45.7c0.6,0,1.1,0.5,1.1,1.1v45.7
	c0,0.6-0.5,1.1-1.1,1.1H74v6h10.8c3.9,0,7.2-3.2,7.2-7.2V12.2C92,8.2,88.8,5,84.8,5z"/>
</svg>
