<svg width="27" height="23" viewBox="0 0 27 23" fill="none" xmlns="http://www.w3.org/2000/svg">
<g clip-path="url(#clip0)">
<path d="M26.5179 8.07215L18.0804 0.374195C17.5018 -0.142131 16.5857 -0.142131 16.0554 0.421134L2.21786 14.8783C1.6875 15.4415 1.6875 16.3334 2.26607 16.8497L8.00357 22.0599H0.482143C0.192857 22.0599 0 22.2946 0 22.5293C0 22.764 0.192857 22.9987 0.482143 22.9987H13.9821C14.0304 22.9987 14.1268 22.9987 14.175 22.9517C14.175 22.9517 14.175 22.9517 14.2232 22.9517C14.2714 22.9517 14.3196 22.9048 14.3679 22.8579L21.4071 15.4885L24.6375 12.1089L26.6143 10.0436C26.8554 9.76195 27 9.38644 27 9.05787C27 8.68236 26.8071 8.30685 26.5179 8.07215ZM13.7893 22.0599H9.45L2.94107 16.1456C2.74821 15.9579 2.74821 15.6762 2.89286 15.4885L7.81071 10.3252L16.9714 18.6334L13.7893 22.0599Z" fill="black"/>
</g>
<defs>
<clipPath id="clip0">
<rect width="27" height="23" fill="white"/>
</clipPath>
</defs>
</svg>
