<svg id="Calque_1" data-name="Calque 1" xmlns="http://www.w3.org/2000/svg" viewBox="0 0 207 76"><defs><style>.cls-1{fill:#fff;}.cls-2{fill:#ff2e2e;stroke:#ff2e2e;}.cls-2,.cls-3{stroke-miterlimit:10;}.cls-3{stroke:#fff;}.cls-4{fill:#32ccd8;}</style></defs><title>logo</title><polygon class="cls-1" points="6.45 61.9 6.45 12.5 27.05 12.5 27.05 18.7 13.37 18.7 13.37 33.02 24.25 33.02 24.25 39.22 13.37 39.22 13.37 55.7 27.05 55.7 27.05 61.9 6.45 61.9"/><path d="M26.55,13v5.2H12.87V33.52H23.75v5.2H12.87V56.2H26.55v5.2H7V13h19.6m1-1H6V62.4h21.6V55.2H13.87V39.72H24.75v-7.2H13.87V19.2H27.55V12Z"/><polygon class="cls-1" points="48.73 61.9 42.97 44.33 42.1 44.33 36.2 61.9 29.78 61.9 38.75 36.62 30.21 12.5 37.49 12.5 42.82 28.77 43.69 28.77 49.16 12.5 55.58 12.5 47.05 36.62 56.01 61.9 48.73 61.9"/><path d="M54.88,13,46.63,36.29l-.12.33.12.33L55.31,61.4H49.09L43.56,44.52l-.23-.69H41.75l-.23.68L35.84,61.4H30.49L39.16,37l.12-.33-.12-.33L30.92,13h6.21l5.1,15.58.23.69H44l.23-.68L49.52,13h5.36m1.41-1H48.8L43.33,28.27h-.14L37.86,12H29.5l8.71,24.63L29.07,62.4h7.49l5.9-17.57h.14L48.37,62.4h8.35L47.58,36.62,56.29,12Z"/><path class="cls-1" d="M61,61.9V12.5H72.13c7.5,0,11.31,4,11.31,12v5c0,7.93-3.8,12-11.31,12H67.88V61.9Zm6.92-26.72h4.24c3,0,4.39-1.62,4.39-5.25v-6c0-3.63-1.35-5.25-4.39-5.25H67.88Z"/><path d="M72.13,13c7.27,0,10.81,3.75,10.81,11.46v5c0,7.71-3.54,11.46-10.81,11.46H67.38V61.4H61.46V13H72.13M67.38,35.68h4.74c3.29,0,4.89-1.88,4.89-5.75v-6c0-3.87-1.6-5.75-4.89-5.75H67.38V35.68M72.13,12H60.46V62.4h7.92V41.88h3.74c7.92,0,11.81-4.39,11.81-12.46v-5C83.94,16.39,80,12,72.13,12ZM68.38,34.68V19.2h3.74c2.52,0,3.89,1.15,3.89,4.75v6c0,3.6-1.37,4.75-3.89,4.75Z"/><path class="cls-1" d="M99.7,62.62c-7.43,0-11.53-4.32-11.53-12.17V23.95c0-7.85,4.09-12.17,11.53-12.17s11.52,4.32,11.52,12.17v26.5C111.23,58.3,107.14,62.62,99.7,62.62ZM99.7,18c-3.06,0-4.6,1.84-4.6,5.47V51c0,3.63,1.55,5.47,4.6,5.47s4.6-1.84,4.6-5.47V23.44C104.31,19.82,102.76,18,99.7,18Z"/><path d="M99.7,12.28c7.11,0,11,4.15,11,11.67v26.5c0,7.53-3.92,11.67-11,11.67s-11-4.15-11-11.67V23.95c0-7.53,3.92-11.67,11-11.67m0,44.64c2.33,0,5.1-1,5.1-6V23.44c0-4.93-2.78-6-5.1-6s-5.1,1-5.1,6V51c0,4.93,2.78,6,5.1,6m0-45.64c-7.78,0-12,4.61-12,12.67v26.5c0,8.06,4.25,12.67,12,12.67s12-4.61,12-12.67V23.95c0-8.06-4.25-12.67-12-12.67Zm0,44.64c-2.52,0-4.1-1.37-4.1-5V23.44c0-3.6,1.58-5,4.1-5s4.1,1.37,4.1,5V51c0,3.6-1.58,5-4.1,5Z"/><path class="cls-1" d="M127.35,62.62c-7.3,0-11.16-4.21-11.16-12.17V48.07h6.49v3c0,3.58,1.55,5.4,4.6,5.4s4.6-1.86,4.6-5.54c0-4.35-1.62-7.1-6.94-11.75-6.36-5.6-8.61-9.61-8.61-15.32,0-7.76,4-12,11.31-12s11,4.21,11,12.17v1.59h-6.49V23.44c0-3.68-1.46-5.47-4.46-5.47s-4.46,1.79-4.46,5.32c0,3.87,1.7,6.6,7,11.25,6.47,5.69,8.54,9.52,8.54,15.75C138.8,58.25,134.74,62.62,127.35,62.62Z"/><path d="M127.64,12.28c7,0,10.52,3.93,10.52,11.67V25h-5.49V23.44c0-4-1.67-6-5-6-2.26,0-5,1-5,5.82,0,4,1.81,6.93,7.18,11.62,6.34,5.58,8.37,9.32,8.37,15.38,0,7.73-3.79,11.82-11,11.82s-10.66-3.93-10.66-11.67V48.57h5.49V51c0,4.87,2.78,5.9,5.1,5.9s5.1-1,5.1-6c0-4.47-1.73-7.42-7.11-12.13-6.24-5.49-8.45-9.4-8.45-14.95,0-7.54,3.74-11.53,10.81-11.53m0-1c-7.71,0-11.81,4.61-11.81,12.53,0,5.76,2.16,9.86,8.78,15.7,5.19,4.54,6.77,7.2,6.77,11.38,0,3.74-1.58,5-4.1,5s-4.1-1.3-4.1-4.9V47.57h-7.49v2.88c0,8.06,3.89,12.67,11.66,12.67s12-4.61,12-12.82c0-6.26-2.09-10.3-8.71-16.13-5.18-4.54-6.84-7.2-6.84-10.87,0-3.46,1.44-4.82,4-4.82s4,1.37,4,5V26h7.49V23.95c0-8.06-3.82-12.67-11.52-12.67Z"/><path class="cls-2" d="M143.26,50.59v-4.1h7.49V51c0,3.6,1.58,5,4.1,5S159,54.7,159,50.23v-4.1c0-4.68-1.58-6.41-5.19-6.41h-2.66v-7.2H154c3,0,4.75-1.3,4.75-5.33V23.52c0-3.6-1.66-5-4-5S151,19.84,151,23.16v3.31h-7.49V23.8c0-8.06,4-12.53,11.59-12.53s11.59,4.39,11.59,12.46v1.8c0,5.4-1.73,8.71-5.62,10.15v.14c4.25,1.58,5.83,5.26,5.83,10.37v4.46c0,8.06-4,12.46-11.81,12.46S143.26,58.66,143.26,50.59Z"/><path class="cls-3" d="M147.26,50.59v-4.1h7.49V51c0,3.6,1.58,5,4.1,5S163,54.7,163,50.23v-4.1c0-4.68-1.58-6.41-5.19-6.41h-2.66v-7.2H158c3,0,4.75-1.3,4.75-5.33V23.52c0-3.6-1.66-5-4-5S155,19.84,155,23.16v3.31h-7.49V23.8c0-8.06,4-12.53,11.59-12.53s11.59,4.39,11.59,12.46v1.8c0,5.4-1.73,8.71-5.62,10.15v.14c4.25,1.58,5.83,5.26,5.83,10.37v4.46c0,8.06-4,12.46-11.81,12.46S147.26,58.66,147.26,50.59Z"/><path class="cls-4" d="M172.64,12h12.1c7.92,0,11.81,4.39,11.81,12.46V49.94c0,8.06-3.89,12.46-11.81,12.46h-12.1Zm12,43.2c2.52,0,4-1.3,4-4.9V24.09c0-3.6-1.51-4.9-4-4.9h-4v36Z"/><path class="cls-1" d="M176.14,61.9V12.5h11.6c7.5,0,11.31,4,11.31,12V49.94c0,7.93-3.8,12-11.31,12Zm6.92-6.2h4.53c3,0,4.53-1.77,4.53-5.4V24.09c0-3.63-1.48-5.4-4.53-5.4h-4.53Z"/><path d="M187.73,13c7.27,0,10.81,3.75,10.81,11.46V49.94c0,7.71-3.54,11.46-10.81,11.46h-11.1V13h11.1m-5.18,43.2h5c2.3,0,5-1,5-5.9V24.09c0-4.87-2.74-5.9-5-5.9h-5v38M187.73,12h-12.1V62.4h12.1c7.92,0,11.81-4.39,11.81-12.46V24.45c0-8.06-3.89-12.46-11.81-12.46Zm-4.18,43.2v-36h4c2.52,0,4,1.3,4,4.9V50.3c0,3.6-1.51,4.9-4,4.9Z"/></svg>