<svg width="47" height="38" viewBox="0 0 47 38" fill="none" xmlns="http://www.w3.org/2000/svg">
<path d="M45.88 1.06133C45.88 1 45.76 1 45.7 1L23.5 4.49574L1.3 1C1.24 1 1.18 1 1.12 1.06133C1.06 1.12266 1 1.24532 1 1.30664V24.9182C1 25.0409 1.06 25.1022 1.18 25.1635L23.38 37C23.44 37 23.5 37.0613 23.5 37.0613C23.5 37.0613 23.62 37.0613 23.62 37L45.82 25.1635C45.94 25.1022 46 24.9796 46 24.9182V1.30664C46 1.24532 45.94 1.12266 45.88 1.06133ZM1.66 1.73595L23.08 5.17036V20.6252L17.8 21.5451V8.48211C17.8 8.29813 17.68 8.17547 17.5 8.17547L10.42 7.43952C10.3 7.43952 10.24 7.43952 10.18 7.50085C10.12 7.56218 10 7.68484 10 7.8075V22.9557L1.66 24.4276V1.73595ZM13.84 22.2811L10.66 22.833V8.17547L13.84 8.48211V22.2811ZM17.14 21.6678L14.2 22.1584V8.54344L17.14 8.85009V21.6678ZM23.5 36.2641L2.5 25.1022L23.56 21.2998L44.56 25.1022L23.5 36.2641ZM45.34 24.4276L23.92 20.6252V5.17036L45.34 1.73595V24.4276Z" fill="#32CCD8" stroke="white"/>
<path d="M42.16 8.85009C42.04 8.72744 41.92 8.66611 41.74 8.66611H41.68L35.44 9.2794C35.14 9.2794 34.9 9.58604 34.9 9.89268V14.7377C34.9 15.0443 35.14 15.3509 35.44 15.3509L41.68 15.8416H41.74C41.92 15.8416 42.04 15.7802 42.16 15.6576C42.28 15.5349 42.34 15.3509 42.34 15.2283V9.34072C42.4 9.15674 42.28 8.97275 42.16 8.85009ZM41.8 9.34072V12.2845H38.62V9.64737L41.8 9.34072ZM38.44 9.64737V12.2845H35.56V9.95401L38.44 9.64737ZM35.56 12.4685H38.44V14.983L35.56 14.799V12.4685ZM38.62 14.983V12.4685H41.8V15.2283L38.62 14.983Z" fill="#32CCD8" stroke="white"/>
</svg>
