<svg width="30" height="36" viewBox="0 0 30 36" fill="none" xmlns="http://www.w3.org/2000/svg">
<g clip-path="url(#clip0)">
<path d="M12 1.36215L17.2258 10.1189L11.6129 17.7081C11.6129 17.7081 11.6129 17.7081 11.6129 17.9027C11.6129 17.9027 11.6129 17.9027 11.6129 18.0973C11.6129 18.0973 11.6129 18.0973 11.6129 18.2919L17.2258 27.827L12 34.8324L0.967742 17.1243L12 1.36215ZM18.1935 27.2432L12.9677 18.4865H23.4194L28.6452 27.2432H18.1935ZM23.4194 0.972957L28.6452 9.72971H18.1935L12.9677 0.972957H23.4194ZM30 27.6324C30 27.4378 30 27.4378 30 27.4378L24.3871 17.9027L30 10.3135C30 10.3135 30 10.3135 30 10.1189C30 10.1189 30 10.1189 30 9.92431C30 9.92431 30 9.92431 30 9.72971L24.1935 -1.59889e-05C24.1935 -1.59889e-05 24.1935 -1.59889e-05 24 -0.194611H23.8065H12.1935C12.1935 -0.194611 12.1935 -0.194611 12 -0.194611L0 16.7351V16.9297V17.1243C0 17.1243 0 17.1243 0 17.3189L11.6129 35.8054H11.8065H23.4194C23.6129 35.8054 23.6129 35.8054 23.8065 35.6108L29.6129 27.827C30 27.827 30 27.827 30 27.6324C30 27.827 30 27.827 30 27.6324Z" fill="white"/>
</g>
<defs>
<clipPath id="clip0">
<rect width="30" height="36" fill="white"/>
</clipPath>
</defs>
</svg>
