<?xml version="1.0" encoding="utf-8"?>
<!-- Generator: Adobe Illustrator 21.1.0, SVG Export Plug-In . SVG Version: 6.00 Build 0)  -->
<svg version="1.1"
	 id="Calque_1" xmlns:cc="http://creativecommons.org/ns#" xmlns:dc="http://purl.org/dc/elements/1.1/" xmlns:inkscape="http://www.inkscape.org/namespaces/inkscape" xmlns:rdf="http://www.w3.org/1999/02/22-rdf-syntax-ns#" xmlns:sodipodi="http://sodipodi.sourceforge.net/DTD/sodipodi-0.dtd" xmlns:svg="http://www.w3.org/2000/svg"
	 xmlns="http://www.w3.org/2000/svg" xmlns:xlink="http://www.w3.org/1999/xlink" x="0px" y="0px" viewBox="0 0 7.4 8.6"
	 style="enable-background:new 0 0 7.4 8.6;" xml:space="preserve">
<style type="text/css">
	.st0{fill:#FFFFFF;}
</style>
<g transform="translate(0,761.3334)">
	<path class="st0" d="M3.7-760.8c-0.9,0-1.6,0.7-1.6,1.6s0.7,1.6,1.6,1.6c0.9,0,1.6-0.7,1.6-1.6C5.3-760.1,4.5-760.8,3.7-760.8z
		 M3.7-760.3c0.6,0,1.1,0.5,1.1,1.1c0,0.6-0.5,1.1-1.1,1.1c-0.6,0-1.1-0.5-1.1-1.1S3.1-760.3,3.7-760.3z M3.1-757.1
		c-1.3,0-2.4,1.1-2.4,2.4v1.3h0.5v-1.3c0-1,0.8-1.9,1.9-1.9h1.1c1,0,1.9,0.8,1.9,1.9v1.3h0.5v-1.3c0-1.3-1.1-2.4-2.4-2.4H3.1z"/>
</g>
</svg>
