<svg width="28" height="20" viewBox="0 0 28 20" fill="none" xmlns="http://www.w3.org/2000/svg">
<path d="M5.5 14.1463V16.5854H9H10H13.5V14.1463H10H9H5.5Z" fill="#FF2E2E"/>
<path d="M4.5 2.92683V0.487804H0V2.92683H0.5H4.5Z" fill="#FF2E2E"/>
<path d="M22.5 2.92683V0.487804H14.5V2.92683H18H19H22.5Z" fill="#FF2E2E"/>
<path d="M22.5 9.7561V7.31707H19H18H14.5V9.7561H18H19H22.5Z" fill="#FF2E2E"/>
<path d="M5.5 7.31707V9.7561H9H10H13.5V7.31707H10H9H5.5Z" fill="#FF2E2E"/>
<path d="M22.5 16.5854V14.1463H19H18H14.5V16.5854H18H19H22.5Z" fill="#FF2E2E"/>
<path d="M10 10.7317V13.1707H13.5H14.5H18V10.7317H14.5H13.5H10Z" fill="#FF2E2E"/>
<path d="M18 17.561H14.5H13.5H10V20H18V17.561Z" fill="#FF2E2E"/>
<path d="M5.5 2.92683H9H10H13.5V0.487804H5.5V2.92683Z" fill="#FF2E2E"/>
<path d="M18 6.34146V3.90244H14.5H13.5H10V6.34146H13.5H14.5H18Z" fill="#FF2E2E"/>
<path d="M23.5 14.1463V16.5854H27.5H28V14.1463H27.5H23.5Z" fill="#FF2E2E"/>
<path d="M23.5 10.7317H22.5H19V13.1707H22.5H23.5H27.5H28V10.7317H27.5H23.5Z" fill="#FF2E2E"/>
<path d="M23.5 7.31707V9.7561H27.5H28V7.31707H27.5H23.5Z" fill="#FF2E2E"/>
<path d="M23.5 3.90244H22.5H19V6.34146H22.5H23.5H27.5H28V3.90244H27.5H23.5Z" fill="#FF2E2E"/>
<path d="M23.5 17.561H22.5H19V20H28V17.561H27.5H23.5Z" fill="#FF2E2E"/>
<path d="M27.95 0.487805H23.5V2.92683H27.5H28V0H27.95V0.487805Z" fill="#FF2E2E"/>
<path d="M9 17.561H5.5H4.5H0.5H0V20H9V17.561Z" fill="#FF2E2E"/>
<path d="M4.5 6.34146H5.5H9V3.90244H5.5H4.5H0.5H0V6.34146H0.5H4.5Z" fill="#FF2E2E"/>
<path d="M4.5 13.1707H5.5H9V10.7317H5.5H4.5H0.5H0V13.1707H0.3H4.5Z" fill="#FF2E2E"/>
<path d="M4.5 9.7561V7.31707H0.5H0V9.7561H0.5H4.5Z" fill="#FF2E2E"/>
<path d="M4.5 16.5854V14.1463H0.3H0V16.5854H0.5H4.5Z" fill="#FF2E2E"/>
</svg>
