<svg width="17" height="25" viewBox="0 0 17 25" fill="none" xmlns="http://www.w3.org/2000/svg">
<g clip-path="url(#clip0)">
<path d="M16.2984 11.0438V24.9908H0.00891113V11.0438H16.2984ZM14.8532 23.4961V12.5415H1.4512V23.4961H14.8532Z" fill="#344593"/>
<path d="M13.6335 13.8055H8.70715V22.2321H13.6335V13.8055Z" fill="#344593"/>
<path d="M7.60019 13.8055H2.6709V22.2321H7.60019V13.8055Z" fill="#344593"/>
<path d="M16.2981 8.44796V8.7432H0.00854492V8.44796C0.00854492 6.12603 0.925553 4.0163 2.40048 2.48782C3.87541 0.956267 5.91123 0.00904083 8.15182 0.00904083C12.633 0.00904083 16.2981 3.80717 16.2981 8.44796ZM1.55173 7.24855H14.7519C14.1999 3.99785 11.44 1.50369 8.15182 1.50369C4.86364 1.50369 2.10372 3.99785 1.55173 7.24855Z" fill="#344593"/>
<path d="M13.0874 5.98475H8.70715V2.79863C10.6094 3.0016 12.2654 4.23484 13.0874 5.98475Z" fill="#344593"/>
<path d="M7.60012 2.79863V5.98475H3.21985C4.03892 4.23484 5.69488 3.0016 7.60012 2.79863Z" fill="#344593"/>
<rect x="2" y="17" width="12" height="1" fill="white"/>
</g>
<defs>
<clipPath id="clip0">
<rect width="16.3043" height="25" fill="white"/>
</clipPath>
</defs>
</svg>
