<svg width="19" height="29" viewBox="0 0 19 29" fill="none" xmlns="http://www.w3.org/2000/svg">
<path d="M-1.90735e-06 9.60509C0.0455627 11.5446 0.729015 13.3917 1.09352 14.1306C3.59952 19.7643 9.47722 29 9.47722 29C9.47722 29 15.4005 19.7643 17.9065 14.1306C18.271 13.4379 19 11.5908 19 9.60509C19 4.29459 14.7626 0 9.52278 0C4.28297 0 -0.136692 4.29459 -1.90735e-06 9.60509Z" fill="#3CC84A"/>
<path d="M4.37412 6.32644V11.8217L9.02161 14.5462V9.14331L4.37412 6.32644Z" fill="white"/>
<path d="M14.6259 6.32644V11.8217L9.93281 14.5462C9.93281 9.14331 9.93281 9.14331 9.93281 9.14331L14.6259 6.32644Z" fill="white"/>
<path d="M14.1703 5.86465L9.47724 3.14013L4.82976 5.86465L9.47724 8.68153L14.1703 5.86465Z" fill="white"/>
</svg>
