{
  "accessors": [
    {
      "bufferView": 2,
      "componentType": 5126,
      "count": 31111,
      "max": [
        70.64408874511719,
        119.12605285644531,
        18.942535400390625
      ],
      "min": [
        0.0,
        0.0,
        0.0
      ],
      "type": "VEC3"
    },
    {
      "bufferView": 2,
      "byteOffset": 373332,
      "componentType": 5126,
      "count": 31111,
      "max": [
        0.999999463558197,
        0.9999892711639404,
        1.0
      ],
      "min": [
        -0.9999405145645142,
        -0.9999135732650757,
        -0.9999999403953552
      ],
      "type": "VEC3"
    },
    {
      "bufferView": 3,
      "componentType": 5126,
      "count": 31111,
      "max": [
        0.9998293519020081,
        0.9973192811012268,
        0.9999951124191284,
        1.0
      ],
      "min": [
        -0.9435347318649292,
        -0.9999993443489075,
        -0.9999954700469971,
        1.0
      ],
      "type": "VEC4"
    },
    {
      "bufferView": 1,
      "componentType": 5126,
      "count": 31111,
      "max": [
        0.9980400204658508,
        0.9899500012397766
      ],
      "min": [
        0.0019499999471008778,
        0.0019499999471008778
      ],
      "type": "VEC2"
    },
    {
      "bufferView": 0,
      "componentType": 5125,
      "count": 183540,
      "type": "SCALAR"
    }
  ],
  "asset": {
    "extras": {
      "author": "Malopolska`s Virtual Museums (https://sketchfab.com/WirtualneMuzeaMalopolski)",
      "license": "CC0-1.0 (http://creativecommons.org/publicdomain/zero/1.0/)",
      "source": "https://sketchfab.com/3d-models/greek-inscription-from-cirenaica-dba1be7b309b4a76b4e4b812d8d62068",
      "title": "Greek inscription from Cirenaica"
    },
    "generator": "Sketchfab-10.58.0",
    "version": "2.0"
  },
  "bufferViews": [
    {
      "buffer": 0,
      "byteLength": 734160,
      "name": "floatBufferViews",
      "target": 34963
    },
    {
      "buffer": 0,
      "byteLength": 248888,
      "byteOffset": 734160,
      "byteStride": 8,
      "name": "floatBufferViews",
      "target": 34962
    },
    {
      "buffer": 0,
      "byteLength": 746664,
      "byteOffset": 983048,
      "byteStride": 12,
      "name": "floatBufferViews",
      "target": 34962
    },
    {
      "buffer": 0,
      "byteLength": 497776,
      "byteOffset": 1729712,
      "byteStride": 16,
      "name": "floatBufferViews",
      "target": 34962
    }
  ],
  "buffers": [
    {
      "byteLength": 2227488,
      "uri": "scene.bin"
    }
  ],
  "extensionsRequired": [
    "KHR_materials_pbrSpecularGlossiness"
  ],
  "extensionsUsed": [
    "KHR_materials_pbrSpecularGlossiness"
  ],
  "images": [
    {
      "uri": "textures/inskrypcja_diffuse.jpeg"
    },
    {
      "uri": "textures/inskrypcja_normal.jpeg"
    }
  ],
  "materials": [
    {
      "doubleSided": true,
      "extensions": {
        "KHR_materials_pbrSpecularGlossiness": {
          "diffuseFactor": [
            1.0,
            1.0,
            1.0,
            1.0
          ],
          "diffuseTexture": {
            "index": 0
          },
          "glossinessFactor": 0.39,
          "specularFactor": [
            0.0,
            0.0,
            0.0
          ]
        }
      },
      "name": "inskrypcja",
      "normalTexture": {
        "index": 1
      }
    }
  ],
  "meshes": [
    {
      "name": "Object_0",
      "primitives": [
        {
          "attributes": {
            "NORMAL": 1,
            "POSITION": 0,
            "TANGENT": 2,
            "TEXCOORD_0": 3
          },
          "indices": 4,
          "material": 0,
          "mode": 4
        }
      ]
    }
  ],
  "nodes": [
    {
      "children": [
        1
      ],
      "matrix": [
        1.0,
        1.6081226229577294e-16,
        -1.608122622957729e-16,
        0.0,
        1.6081226229577292e-16,
        -1.0,
        0.0,
        0.0,
        -1.6081226229577292e-16,
        0.0,
        -1.0,
        0.0,
        -2.220446049250313e-16,
        0.6841527223587037,
        -0.7035154104232787,
        1.0
      ],
      "name": "Sketchfab_model"
    },
    {
      "children": [
        2
      ],
      "matrix": [
        1.0,
        0.0,
        0.0,
        0.0,
        0.0,
        1.0,
        0.0,
        0.0,
        0.0,
        0.0,
        1.0,
        0.0,
        -34.01729202270508,
        -58.86922073364258,
        -9.480952262878418,
        1.0
      ],
      "name": "MAK_AS_2401_A_Inskrypcja_z_Cyrenajki_lr_s.OBJ.cleaner.gles"
    },
    {
      "children": [
        3
      ],
      "name": "Object_2"
    },
    {
      "mesh": 0,
      "name": "Object_3"
    }
  ],
  "samplers": [
    {
      "magFilter": 9729,
      "minFilter": 9987,
      "wrapS": 10497,
      "wrapT": 10497
    }
  ],
  "scene": 0,
  "scenes": [
    {
      "name": "Sketchfab_Scene",
      "nodes": [
        0
      ]
    }
  ],
  "textures": [
    {
      "sampler": 0,
      "source": 0
    },
    {
      "sampler": 0,
      "source": 1
    }
  ]
}
